<?xml version="1.0" encoding="UTF-8"?>
<svg id="Calque_2" data-name="Calque 2" xmlns="http://www.w3.org/2000/svg" viewBox="0 0 1108.46 436.52">
  <defs>
    <style>
      .cls-1 {
        fill: none;
        stroke: #000;
        stroke-miterlimit: 10;
      }

      .cls-2 {
        font-family: Themundayfreeversion-Regular, 'The munday free version';
        font-size: 39.6px;
      }
    </style>
  </defs>
  <g id="Calque_1-2" data-name="Calque 1">
    <text class="cls-2" transform="translate(959.34 44.92) rotate(21.19) scale(1.06 1)"><tspan x="0" y="0">P</tspan></text>
    <text class="cls-2" transform="translate(983.38 54.38) rotate(34.05) scale(1.06 1)"><tspan x="0" y="0">R</tspan></text>
    <text class="cls-2" transform="translate(1004.31 68.13) rotate(47.85) scale(1.06 1)"><tspan x="0" y="0">O</tspan></text>
    <text class="cls-2" transform="translate(1023.38 89.21) rotate(61.53) scale(1.06 1)"><tspan x="0" y="0">V</tspan></text>
    <text class="cls-2" transform="translate(1036.28 113.84) rotate(75.59) scale(1.06 1)"><tspan x="0" y="0">E</tspan></text>
    <text class="cls-2" transform="translate(1042.21 137.14) rotate(89.82) scale(1.06 1)"><tspan x="0" y="0">N</tspan></text>
    <text class="cls-2" transform="translate(1042.61 163.04) rotate(106.75) scale(1.06 1)"><tspan x="0" y="0">C</tspan></text>
    <text class="cls-2" transform="translate(1033.3 192.35) rotate(121.8) scale(1.06 1)"><tspan x="0" y="0">E</tspan></text>
    <text class="cls-2" transform="translate(1019.76 212.69) rotate(131.7) scale(1.06 1)"><tspan x="0" y="0">.</tspan></text>
    <g>
      <path d="M449.74,371.91c-3.35,0-6.78,1.33-9.53,1.49l-17.58,57.4c-1.36,4.45-5.49,6.09-9.61,5.65-1.89-.2-4.52-.86-5.63-1.73-1.19-.94-2.13-4.31-1.61-5.94l17.71-55.36-113.01-.19c-1.27,0-3.88,1.27-4.78,1.48l-122.54-.1c-2.57,0-5.6-1.81-6.69-3.31-1.42-1.96-1.8-6.09-.79-7.89l33.93-.6,69.86-1.02,94.59-.63,4.28-1.41,50.16-.19,24.15-81.98c3.51-11.91,7.1-22.94,9.89-35.56-21.1,21.53-52.84,48.73-84.18,42.11-13.27-2.8-24.1-10.55-27-24.64-8.41,4.56-16.55,7.19-25.22,9.42-1.95,6.83-3.53,15.67-9.74,20.57-10.64,8.4-24.02,8.69-36.23,3.68-11.43-4.69-19.18-15.87-16.19-28.38.95-3.96,6.21-6.66,9.66-7.65,13.78-3.96,20.75,3.51,38.74.56-1.95-10.16-5.75-18.13-9.93-26.72l-9.3-19.11c-14.23,15.91-35.43,34.2-56.57,36.83-8.26,20-26.77,38.18-49.85,35.14-5.17-.68-11.87-3.76-15.7-7.3-8.8-8.12-9.93-30.09-6.42-41.3l4.76-15.21-34.93,12.56c-11.25,37.17-25.11,73.83-49.08,104.32-5.44,6.92-12.27,12.95-19.43,18.12-11.82,8.52-25.9,12.78-39.91,10.29-13.76-2.45-22.84-12.33-25.21-25.75-.82-4.67-1.27-10.16-.25-14.89.36-1.66.76-4.61,1.25-6.06,7.13-21.2,21.69-37.21,39.26-50.61,24.3-18.55,51.04-32.16,79.8-43.78,8.06-28.61,15.62-56.65,20.22-85.76l1.74-11.01,1.57-10.99,1.69-13.4c.57-4.55,1.72-8.82,1.42-13.8-.08-1.4,3.64-22,1.29-33.93l-1.59-8.11c-.71-3.61-2.2-8.72-5.89-10.31-2.64-1.13-7.05,1.37-9.33,3.38-19.99,17.59-34.23,44.62-42.6,70.03-6.07,18.42,5.49,19.22,2.33,29.59-4.22,2.24-8.51.56-11.6-2.85-5.59-6.16-6.49-14.54-4.92-22.95,4.44-23.76,14.86-45.12,29.34-64.61,4.84-6.52,10.68-12.3,16.51-17.83,6.81-6.47,14.57-9.85,24.18-8.63,11.45,1.45,15.92,15.69,17.06,25.07l1.25,10.29c1.07,8.79.99,18.04.04,26.94l-1.59,14.89-1.41,11.11-1.65,11.54-1.39,8.44-1.72,10.55c-4.12,25.22-9.84,49.31-16.91,75.28l35.33-11.4c2.53-.82,5.53-1,6.94-3.13,3.1-4.67,7.88-5.56,12.11-8.14,5.4-3.3,9.98-6.68,16.51-8.64,8.77-2.64,20.3-.49,26.35,7.23,8.98,11.46,10.15,26.42,5.15,41.03,17.03-3.31,38.08-25.59,49.23-38.79-2.99-13.19,9.03-37.39,21.95-33,2.58.88,7.31,3.64,6.9,7.01-1.36,11.25-7.74,20.03-14.21,29.23-1.23,1.75.38,6.64,1.39,8.68l12.97,26.19c3.61,7.28,6.09,14.58,6.72,22.9,8.84-1.58,17.06-5.81,23.45-12.39,2.7-25.18,18.22-46.88,42.1-55.66,7.13-2.62,14.34-2.41,21.64-1.58,8.1.91,12.42,5.57,14.99,12.17,2.19,5.64.87,9.38-.67,14.43-6.82,22.37-33.64,33.94-54.72,36.87-3.25.45-6.84.87-9.43,3.03.84,9.81,7.81,15.94,16.54,18.95,13.53,4.65,36.59-7.62,47.43-16.42l13.64-11.07c4.18-3.39,7.84-6.77,11.54-10.67,7.56-7.95,1.44-3.93,9.78-11.18,2.85-2.47,5.86-5.55,6.88-9.4l10.46-39.52c3.48-3.3,12.68-.44,13.58,4.22l-8.62,36.46c7.98-9.28,15.88-17.12,26.55-22.76,2.67-1.41,6.49-2,9.18-2.96,5.86-2.08,10.18-1.23,15.67.6,6.76,2.26,12.21,7.29,13.79,14.8,4.96,23.62-1.16,36.22-12.12,58.12,17.86-6.55,40.99-27.96,52.36-41.55l13.25-47.11c13.39-47.59,33.23-118.48,61.96-157.94l4.81-6.61,4.33-3.41c7.29-5.74,17.31-8.48,25.29-2.02,7.84,6.35,7.38,25.56,6.23,34.91-4.24,34.37-15.31,67.42-33.99,96.71-13.42,21.05-32.13,40.31-55.75,49.5l-16.74,61,23.81-24.02c9.43-9.51,19.16-18.31,30.43-25.48,10.16-6.46,21.98-6.34,22.46.06.37,5.01.43,10.5-.4,15.05l-5.27,28.8-1.16,7.29c-.68,4.26-.47,9.15-.47,13.84.01,5.74,4.98,10.64,11.01,9.4,8.77-1.81,16.59-7.25,23.45-12.83,4.92-4,5.52-8.57,6.33-14.38,2.44-17.6,7.74-34.14,15.76-49.75,3.14-6.11,13.5-5.98,15.63-2.27.94,1.64.38,4.49-.56,6.54-7.42,16.26-13.22,32.21-17.36,49.54-1.32,5.55-1.69,20.44,5.6,17.6,4.09-1.6,8.05-3.2,11.38-5.64,9.08-6.65,16.96-14.22,24.29-22.82l8.33-9.78,5.26-6.57,8.16-9.89c6.14-7.45,9.59-12.19,17.93-18.67,2.26-.34,7.06-.19,9.13-.02l4.29,8.34c-3.83,2.62-1.82,6.53-2.77,9.79l-9.95,34.32,1,1.57,10.38-11.26c8.82-9.57,16.56-19.91,26.75-28.31,6.66-5.48,20.39-18.19,29.26-13.91,2.58,1.24,3.65,4.28,5.12,7.2,2.34,4.67-.48,6.8-1.4,10.82l-2.28,9.96-1.54,7.02c-.83,3.81-1.55,7.36-2.14,11.12l-1.58,9.99c-1.01,6.42-3.44,15.16,3.6,19.9,8.02,5.4,29.62-9.65,34.41-16.95.12-4.89-.37-10.11.62-14.36,5.23-22.64,20.07-40.97,42.16-48.72,6.47-2.27,15.72-2.84,21.67-1.46,10.46,2.43,15.73,11.18,14.89,21.56-.76,9.38-6.14,17.35-13.21,23.48-15.94,13.8-31.8,16.42-51.31,19.91-.77.07-1.37-.03-1.32.3l.27,1.81c1.5,10.11,7.82,16.01,17.08,18.6,4.9,1.37,9.22,1.37,14.59-.06,26.56-7.11,24.77-19.15,33.77-16.39,2.1.64,4.42,5.7,2.46,8.22-11.65,15.06-32.24,23-51.21,20.21-12.04-1.77-21.74-7.61-27.16-19.04-10.59,9.39-26.81,19.23-40.72,16.84-8.25-1.42-13.48-6.22-15.35-14.12-1.54-6.54-1.85-12.48.32-19.12.74-2.26-.05-7.21.52-9.54l1.79-7.2,5.32-21.46c.13-.53.31-1.45.36-1.75.12-.67-1.49,0-2.42.87l-26.07,24.72c-3.86,3.66-7.2,7.53-10.71,11.37l-10.98,12.03c-3.18,3.48-6.16,7.1-9.55,10.4s-5.9,6.15-8.99,10.3l-8.31-.31c-2.2-3.09-1.95-6.66-.91-10.12l15.81-52.8.47-1.58c.45-1.51-2.34,1.65-1.9,1.05-10.36,14.21-21.94,28.6-34.06,41.53-6.77,7.22-14.02,12.64-22.07,17.97-6.54,4.34-13.59,5.88-21.57,5.22-5.92-.49-9.15-5.65-11.48-11.18-7.49,6.47-14.96,10.39-23.63,13.27-9.36,3.1-25.27,1.27-28.68-9.47-2.45-7.72-3.4-17.92-1.99-25.7,1.5-8.29,1.66-13.72,2.97-19.96l4.16-19.74c-18.79,13.98-34.22,29.93-50.2,46.23l-22.75,23.2c-1.35,1.38-4.54,2.37-6.17,2.34-1.82-.03-5.9-2.57-5.78-4.42l5.9-27.28c-4.14,3.07-7.83,6.84-10.42,9.51-.84.6-3.38,1.73-4.27,2.16-10.29,8.2-21.51,16.76-34.56,19.59l-12.07,2.61c-8.81,1.91-16.68,6.49-25.69,3.08-4.83-1.82-8.06-5.31-9.32-10.66-4.19-17.76,5.92-25.33,21.55-30.94,3.27-1.18,6.04,0,7.71,2.48,1.97,2.92.79,7.25-2.62,8.39-6.06,2.03-13.22,5.32-15.02,12.18-1,3.81,5.18,7.21,8.18,6.16,3.37-1.18,6.75-2.3,9.21-4.46,15.45-13.52,23.94-35.6,20.94-55.48-.94-6.23-7.13-12.41-13.29-10.12-14.53,5.4-26.99,15.31-35.39,27.79-8.22,11.48-13.24,22.83-17.11,36.3l-27.12,94.21,94.17.22c1.76,0,3.69-.62,5.57-1.28l317.83-.08c1.26.54,3.54,1.52,4.54,1.51l67.84-.26,7.06,1.37c3.17.62,24.99-2.03,30.53,2.16,1.21.91,2.73,6.76-.61,8.96-.83.55-3.22-1.13-4.35-1.13l-63.99-.32-8.55-1.17-135.81.13-11.23,1.04-160.75-.27-5.26,1.16-131.16-.04ZM675.85,100.81c5.85-13.65,13.29-37.1,15.18-51.49l1.07-8.13c.56-4.28,2.4-26.99-3.5-27.31-7.81-.42-19.22,22.49-22.45,29.64l-14.4,31.92c-11.14,30.44-21.62,60.2-31.44,92.75,26.24-11.77,44.78-42.31,55.53-67.39ZM227.38,235.91c4.27-9.91,5.96-30.34-3.28-36.3-3.61-2.33-7.59-2.84-11.6-1.04-8.18,3.69-13.13,12.89-10.28,21.28,3.63,10.67,15.82,17.66,25.16,16.06ZM395.21,230.55c8.17-3.55,15.28-8.23,19.06-16.31,1.8-3.85,3.56-9.14.74-12.69-7.87-9.93-26.62.44-32.94,6.75-8.37,8.36-14.13,17.27-17.47,29.67,9.2.66,21.72-3.56,30.6-7.42ZM931.52,237.26c10.02-2.52,19.32-4.91,28.37-10.35,7.31-4.39,14.09-13.46,12.83-22.4-1.45-10.24-22.2-8.16-35.68,5.88-7.4,7.71-13.01,15.82-15.48,27.45,3.37.62,6.73.24,9.96-.58ZM221.91,249.1c-7.92-1.84-14.62-3.89-20.48-8.15-10.6-7.7-9.33-14.04-13.23-25.25-4.87,6.97-8.66,13.67-10.26,21.56-2.14,10.56-3.1,7.52-1.25,16.34.97,4.64,1.82,10.3,5.5,13.49,13.24,11.51,32.37-4.62,39.72-18ZM27.86,351.97c16.49,4.37,31.67-9.26,42.18-20.79,20.57-25.87,34.87-58.8,44.82-90.22-24.51,10.12-45.74,22.22-65.92,37.03-16.09,13.28-29.34,26.56-35.4,46.94-2.5,8.4.93,23.49,14.32,27.04ZM310.93,270.53c-6.97-.05-12.98.62-18.6-.41s-10.68-2.5-16.14-.45c.66,7.72,6.54,10.55,12.5,13.1,3.28,1.4,5.64,1.55,9,.73,6.85-1.66,12.66-5.2,13.23-12.98Z"/>
      <path d="M403.59,169.42c-3.08,2.2-10.16-.26-9.66-4.12.53-4.09,5.77-7.42,8.96-10.18l23.64-20.47c4.81-.44,11.25,9.54,6.93,13.15-9.3,7.79-19.36,14.12-29.87,21.62Z"/>
      <path d="M754.04,150.73c2.96,2.32,4.08,11.87-1.16,16.61-2.37,2.15-5.53,2.9-9.9,2.43-3.33-.36-6.13-4.49-6.77-7.23-.95-4.03.62-7.55,3.63-10.43,4.09-3.9,11.12-3.79,14.2-1.38Z"/>
      <path class="cls-1" d="M27.86,351.97c-13.4-3.55-16.82-18.63-14.32-27.04,6.06-20.37,19.31-33.66,35.4-46.94,20.18-14.81,41.41-26.91,65.92-37.03-9.94,31.41-24.25,64.35-44.82,90.22-10.5,11.54-25.68,25.16-42.18,20.79Z"/>
      <path class="cls-1" d="M675.85,100.81c-10.75,25.08-29.3,55.62-55.53,67.39,9.82-32.55,20.3-62.31,31.44-92.75l14.4-31.92c3.23-7.15,14.63-30.06,22.45-29.64,5.89.32,4.06,23.03,3.5,27.31l-1.07,8.13c-1.9,14.38-9.33,37.83-15.18,51.49Z"/>
      <path class="cls-1" d="M221.91,249.1c-7.35,13.38-26.48,29.51-39.72,18-3.68-3.2-4.53-8.86-5.5-13.49-1.84-8.82-.89-5.78,1.25-16.34,1.6-7.89,5.39-14.59,10.26-21.56,3.9,11.21,2.64,17.55,13.23,25.25,5.86,4.26,12.55,6.31,20.48,8.15Z"/>
      <path class="cls-1" d="M395.21,230.55c-8.88,3.86-21.4,8.08-30.6,7.42,3.34-12.4,9.09-21.31,17.47-29.67,6.32-6.31,25.07-16.68,32.94-6.75,2.81,3.55,1.06,8.84-.74,12.69-3.78,8.08-10.89,12.76-19.06,16.31Z"/>
      <path class="cls-1" d="M931.52,237.26c-3.23.81-6.59,1.2-9.96.58,2.47-11.63,8.08-19.74,15.48-27.45,13.48-14.04,34.23-16.13,35.68-5.88,1.26,8.94-5.52,18.01-12.83,22.4-9.05,5.45-18.35,7.83-28.37,10.35Z"/>
      <path class="cls-1" d="M227.38,235.91c-9.34,1.6-21.53-5.4-25.16-16.06-2.85-8.38,2.09-17.59,10.28-21.28,4.01-1.8,7.99-1.29,11.6,1.04,9.24,5.96,7.55,26.39,3.28,36.3Z"/>
      <path class="cls-1" d="M310.93,270.53c-.57,7.78-6.38,11.32-13.23,12.98-3.36.81-5.73.67-9-.73-5.96-2.55-11.84-5.38-12.5-13.1,5.46-2.05,10.71-.54,16.14.45s11.62.36,18.6.41Z"/>
    </g>
  </g>
</svg>